<svg xmlns="http://www.w3.org/2000/svg" width="135" height="135" viewBox="0 0 135 135" fill="none">
  <path d="M27.6562 97.0312C22.4062 93.8438 18.5156 90.0469 16 85.6562C13.4844 81.2656 12.2266 76.5938 12.2266 71.6406C12.2266 63.9531 14.8359 57.2891 20.0547 51.6484C25.1797 45.9141 31.5781 42.5391 39.25 41.5234L41.9531 52.9531C37.7969 53.5 34.3281 55.3984 31.5469 58.6484C28.7656 61.8984 27.375 65.6562 27.375 69.9219C27.375 72.1094 27.7656 73.8203 28.5469 75.0547C29.3281 76.2891 30.3125 77.1328 31.5 77.5859C33.7812 78.4922 35.5859 79.9766 36.9141 82.0391C38.2422 84.1016 38.9062 86.4453 38.9062 89.0703C38.9062 92.7266 37.6406 95.7969 35.1094 98.2812C32.5781 100.766 29.4844 101.984 25.8281 101.984C25.8281 101.984 25.8281 101.984 25.8281 101.984C25.8281 101.984 25.8281 101.984 25.8281 101.984C24.7188 101.984 23.5625 101.844 22.3594 101.562C21.1562 101.281 20.0469 100.859 19.0312 100.297C20.5 101.047 21.875 101.609 23.1562 101.984C24.4375 102.359 25.8281 102.547 27.3281 102.547C31.0781 102.547 34.2188 101.328 36.75 98.8906C39.2812 96.4531 40.5469 93.3672 40.5469 89.6328C40.5469 87.0078 39.8828 84.6797 38.5547 82.6484C37.2266 80.6172 35.4219 79.1484 33.1406 78.2422C32.0469 77.7891 31.0781 76.9453 30.2344 75.7109C29.3906 74.4766 28.9688 72.7812 28.9688 70.625C28.9688 66.3594 30.3438 62.5859 33.0938 59.3047C35.8438 56.0234 39.3594 54.125 43.5938 53.6094L40.8906 42.1328C33.0312 43.1484 26.5547 46.5234 21.4297 52.2578C16.3047 58.0859 13.7266 64.75 13.7266 72.25C13.7266 77.2031 15 81.875 17.5469 86.2344C20.0469 90.6719 23.9375 94.4375 29.1562 97.5938L27.6562 97.0312ZM83.5938 97.0312C78.3438 93.8438 74.4531 90.0469 71.9375 85.6562C69.4219 81.2656 68.1641 76.5938 68.1641 71.6406C68.1641 63.9531 70.7734 57.2891 75.9922 51.6484C81.1172 45.9141 87.5156 42.5391 95.1875 41.5234L97.8906 52.9531C93.7344 53.5 90.2656 55.3984 87.4844 58.6484C84.7031 61.8984 83.3125 65.6562 83.3125 69.9219C83.3125 72.1094 83.7031 73.8203 84.4844 75.0547C85.2656 76.2891 86.25 77.1328 87.4375 77.5859C89.7188 78.4922 91.5234 79.9766 92.8516 82.0391C94.1797 84.1016 94.8438 86.4453 94.8438 89.0703C94.8438 92.7266 93.5781 95.7969 91.0469 98.2812C88.5156 100.766 85.4219 101.984 81.7656 101.984C81.7656 101.984 81.7656 101.984 81.7656 101.984C81.7656 101.984 81.7656 101.984 81.7656 101.984C80.6562 101.984 79.5 101.844 78.2969 101.562C77.0938 101.281 75.9844 100.859 74.9688 100.297C76.4375 101.047 77.8125 101.609 79.0938 101.984C80.375 102.359 81.7656 102.547 83.2656 102.547C87.0156 102.547 90.1562 101.328 92.6875 98.8906C95.2188 96.4531 96.4844 93.3672 96.4844 89.6328C96.4844 87.0078 95.8203 84.6797 94.4922 82.6484C93.1641 80.6172 91.3594 79.1484 89.0781 78.2422C87.9844 77.7891 87.0156 76.9453 86.1719 75.7109C85.3281 74.4766 84.9062 72.7812 84.9062 70.625C84.9062 66.3594 86.2812 62.5859 89.0312 59.3047C91.7812 56.0234 95.2969 54.125 99.5312 53.6094L96.8281 42.1328C88.9688 43.1484 82.4922 46.5234 77.3672 52.2578C72.2422 58.0859 69.6641 64.75 69.6641 72.25C69.6641 77.2031 70.9375 81.875 73.4844 86.2344C75.9844 90.6719 79.875 94.4375 85.0938 97.5938L83.5938 97.0312Z" fill="#0E284B" fill-opacity="0.2"/>
</svg>